<svg width="512" height="512" viewBox="0 0 512 512" fill="none" xmlns="http://www.w3.org/2000/svg">
<path fill-rule="evenodd" clip-rule="evenodd" d="M97.3289 285.989L128.297 248.385L121.661 272.717C132.721 259.445 158.381 231.574 172.538 226.265C198.345 214.467 255.267 186.448 276.503 168.752C320.006 134.097 421.611 71.8657 480.009 100.18C471.898 101.654 457.004 105.931 462.312 111.24C464.525 109.028 472.045 104.604 484.433 104.604C496.82 104.604 498.442 114.926 497.705 120.088C491.069 119.35 476.469 119.645 471.161 126.724H504.341C508.028 134.835 514.516 155.48 510.977 173.176C495.493 164.328 461.87 146.632 451.252 146.632L442.404 135.572V146.632L420.284 144.42V137.784L413.648 144.42L395.952 142.208C405.537 131.885 428.69 109.913 444.616 104.604C431.344 104.604 403.915 116.549 382.68 164.328C364.246 168.015 323.398 180.697 307.471 201.933C324.43 191.61 361.887 171.407 376.044 173.176L358.348 204.145C347.287 206.357 323.398 212.993 316.319 221.841L358.348 208.569C351.711 221.103 336.227 247.5 327.379 252.809C325.167 257.97 310.568 268.736 269.867 270.505C280.189 271.98 304.374 274.487 318.531 272.717C310.42 284.515 291.102 309.437 278.715 314.746L225.626 312.534L272.079 323.594L190.234 316.958L241.11 336.866C236.753 340.497 216.085 348.135 168.114 350.054C168.114 362.375 165.164 374.414 163.69 378.894C151.302 414.287 130.509 418.711 110.601 418.711C75.2087 414.287 61.9366 395.853 48.6645 381.106C35.3923 363.41 11.7974 330.23 0 319.17C67.2455 324.479 110.601 311.059 123.873 303.686C199.967 275.372 254.382 213.73 272.079 186.448C249.074 212.993 202.031 247.648 181.386 261.657C145.993 289.971 97.3289 302.948 77.4208 305.898C82.7296 304.128 97.3289 280.091 103.965 268.293L97.3289 285.989ZM90.6929 330.23C81.8448 331.999 48.6645 333.917 33.1803 334.654C33.1803 338.193 47.9271 358.249 55.3005 367.834C76.7861 395.766 100.278 406.913 112.813 407.651C146.436 407.651 156.316 369.309 157.054 350.138C155.284 343.06 141.569 339.815 134.933 339.078C143.781 351.465 143.044 357.511 141.569 358.986C138.03 348.368 106.177 335.391 90.6929 330.23Z" fill="url(#paint0_linear_86_30)"/>
<path d="M208.271 118.597C160.492 130.984 152.971 203.391 155.183 238.046L164.031 231.411C164.031 180.092 175.091 153.253 181.727 147.354C212.695 114.174 237.028 127.446 250.3 145.142L265.784 165.05C294.54 222.563 338.043 284.499 349.841 297.772C367.537 319.007 384.892 325.806 402.588 328.018C431.344 328.018 453.068 316.942 458.23 308.832C398.505 339.8 376.385 313.256 367.537 306.62C359.913 300.902 333.619 266.803 321.084 249.107L270.208 162.838C241.452 116.386 219.331 116.385 208.271 118.597Z" fill="url(#paint1_linear_86_30)"/>
<defs>
<linearGradient id="paint0_linear_86_30" x1="-5.18139e-07" y1="418.711" x2="513.189" y2="418.711" gradientUnits="userSpaceOnUse">
<stop stop-color="#A55FCF"/>
<stop offset="0.480902" stop-color="#6FADD6"/>
<stop offset="1" stop-color="#6A92CF"/>
</linearGradient>
<linearGradient id="paint1_linear_86_30" x1="367.196" y1="331.089" x2="460.101" y2="331.089" gradientUnits="userSpaceOnUse">
<stop stop-color="#725FA1"/>
<stop offset="1" stop-color="#A9A9A9"/>
</linearGradient>
</defs>
</svg>
