<svg width="8675" height="3594" viewBox="0 0 8675 3594" fill="none" xmlns="http://www.w3.org/2000/svg">
<path fill-rule="evenodd" clip-rule="evenodd" d="M475.239 2156.43L626.45 1972.82L594.048 2091.63C648.052 2026.82 773.345 1890.73 842.471 1864.81C968.481 1807.2 1246.42 1670.39 1350.11 1583.98C1562.53 1414.77 2058.65 1110.91 2343.79 1249.16C2304.19 1256.36 2231.46 1277.24 2257.38 1303.16C2268.19 1292.36 2304.91 1270.76 2365.4 1270.76C2425.88 1270.76 2433.8 1321.16 2430.2 1346.37C2397.8 1342.76 2326.51 1344.2 2300.59 1378.77H2462.6C2480.61 1418.37 2512.29 1519.18 2495 1605.58C2419.4 1562.38 2255.22 1475.98 2203.38 1475.98L2160.18 1421.97V1475.98L2052.17 1465.17V1432.77L2019.77 1465.17L1933.36 1454.37C1980.16 1403.97 2093.21 1296.68 2170.98 1270.76C2106.17 1270.76 1972.24 1329.09 1868.55 1562.38C1778.54 1580.38 1579.09 1642.31 1501.32 1746C1584.13 1695.59 1767.03 1596.95 1836.15 1605.58L1749.75 1756.8C1695.74 1767.6 1579.09 1800 1544.53 1843.21L1749.75 1778.4C1717.34 1839.6 1641.73 1968.5 1598.53 1994.42C1587.73 2019.62 1516.45 2072.19 1317.71 2080.82C1368.11 2088.03 1486.2 2100.27 1555.33 2091.63C1515.72 2149.23 1421.4 2270.92 1360.91 2296.84L1101.69 2286.04L1328.51 2340.05L928.877 2307.65L1177.29 2404.85C1156.02 2422.58 1055.1 2459.88 820.869 2469.25C820.869 2529.41 806.465 2588.19 799.268 2610.07C738.779 2782.88 637.251 2804.49 540.044 2804.49C367.23 2782.88 302.425 2692.88 237.62 2620.87C172.814 2534.46 57.6045 2372.45 0 2318.45C328.347 2344.37 540.044 2278.84 604.849 2242.84C976.401 2104.59 1242.1 1803.6 1328.51 1670.39C1216.18 1800 986.479 1969.22 885.674 2037.62C712.856 2175.87 475.239 2239.24 378.031 2253.64C403.953 2245 475.239 2127.63 507.642 2070.02L475.239 2156.43ZM442.836 2372.45C399.633 2381.09 237.62 2390.45 162.013 2394.05C162.013 2411.33 234.019 2509.26 270.022 2556.06C374.932 2692.45 489.639 2746.88 550.845 2750.48C715.02 2750.48 763.262 2563.27 766.865 2469.66C758.223 2435.1 691.255 2419.25 658.853 2415.65C702.056 2476.14 698.457 2505.66 691.255 2512.86C673.975 2461.01 518.442 2397.65 442.836 2372.45Z" fill="url(#paint0_linear_437_156)"/>
<path d="M1016.95 1339.09C783.652 1399.57 746.929 1753.12 757.729 1922.33L800.933 1889.94C800.933 1639.36 854.936 1508.31 887.339 1479.5C1038.55 1317.49 1157.36 1382.29 1222.17 1468.7L1297.77 1565.91C1438.18 1846.73 1650.6 2149.16 1708.21 2213.96C1794.61 2317.65 1879.36 2350.85 1965.76 2361.65C2106.17 2361.65 2212.25 2307.57 2237.45 2267.97C1945.83 2419.18 1837.82 2289.57 1794.61 2257.17C1757.39 2229.25 1629 2062.75 1567.79 1976.34L1319.38 1555.11C1178.96 1328.29 1070.95 1328.29 1016.95 1339.09Z" fill="url(#paint1_linear_437_156)"/>
<g filter="url(#filter0_di_437_156)">
<path d="M2627 2486V1262H3141.8C3277.4 1262 3395 1298.6 3494.6 1371.8C3595.4 1445 3645.8 1555.4 3645.8 1703C3645.8 1849.4 3592.4 1957.4 3485.6 2027C3378.8 2095.4 3259.4 2129.6 3127.4 2129.6H2954.6V2486H2627ZM3131 1519.4H2954.6V1872.2H3134.6C3185 1872.2 3226.4 1856 3258.8 1823.6C3291.2 1791.2 3307.4 1751 3307.4 1703C3307.4 1649 3291.8 1605.2 3260.6 1571.6C3229.4 1536.8 3186.2 1519.4 3131 1519.4ZM3807.83 2486V1614.8H3971.63L4050.83 1703C4086.83 1679 4129.43 1658 4178.63 1640C4227.83 1622 4277.03 1613 4326.23 1613L4392.83 1875.8C4349.63 1875.8 4305.23 1881.8 4259.63 1893.8C4214.03 1905.8 4172.63 1926.2 4135.43 1955V2486H3807.83ZM4679.98 1494.2C4631.98 1494.2 4590.58 1476.8 4555.78 1442C4520.98 1407.2 4503.58 1365.8 4503.58 1317.8C4503.58 1268.6 4520.98 1226.6 4555.78 1191.8C4590.58 1155.8 4631.98 1137.8 4679.98 1137.8C4729.18 1137.8 4771.18 1155.8 4805.98 1191.8C4841.98 1226.6 4859.98 1268.6 4859.98 1317.8C4859.98 1365.8 4841.98 1407.2 4805.98 1442C4771.18 1476.8 4729.18 1494.2 4679.98 1494.2ZM4517.98 2486V1613H4845.58V2486H4517.98ZM5660.55 2043.2C5660.55 1991.6 5646.15 1946.6 5617.35 1908.2C5589.75 1868.6 5549.55 1848.8 5496.75 1848.8C5473.95 1848.8 5453.55 1851.8 5435.55 1857.8C5417.55 1863.8 5401.95 1870.4 5388.75 1877.6V2185.4C5405.55 2201 5426.55 2214.2 5451.75 2225C5476.95 2234.6 5500.95 2239.4 5523.75 2239.4C5572.95 2239.4 5607.75 2217.8 5628.15 2174.6C5649.75 2130.2 5660.55 2086.4 5660.55 2043.2ZM5061.15 2880.2V1614.8H5224.95L5280.75 1690.4C5325.15 1655.6 5371.95 1629.2 5421.15 1611.2C5471.55 1592 5524.35 1582.4 5579.55 1582.4C5719.95 1582.4 5824.95 1625.6 5894.55 1712C5964.15 1798.4 5998.95 1906.4 5998.95 2036C5998.95 2166.8 5964.15 2277.8 5894.55 2369C5826.15 2460.2 5715.15 2505.8 5561.55 2505.8C5532.75 2505.8 5503.35 2501.6 5473.35 2493.2C5443.35 2486 5415.15 2476.4 5388.75 2464.4V2862.2L5061.15 2880.2ZM6107.54 2050.4C6107.54 1904 6152.54 1789.4 6242.54 1706.6C6333.74 1623.8 6445.34 1582.4 6577.34 1582.4C6716.54 1582.4 6820.94 1627.4 6890.54 1717.4C6960.14 1807.4 6994.94 1913.6 6994.94 2036V2149.4H6463.94C6478.34 2183 6499.94 2207 6528.74 2221.4C6558.74 2235.8 6594.14 2243 6634.94 2243C6673.34 2243 6712.34 2239.4 6751.94 2232.2C6792.74 2225 6829.94 2213 6863.54 2196.2L6955.34 2417.6C6904.94 2454.8 6842.54 2478.8 6768.14 2489.6C6693.74 2500.4 6638.54 2505.8 6602.54 2505.8C6460.94 2505.8 6342.74 2469.8 6247.94 2397.8C6154.34 2324.6 6107.54 2208.8 6107.54 2050.4ZM6681.74 1951.4C6680.54 1932.2 6671.54 1910 6654.74 1884.8C6637.94 1858.4 6609.14 1845.2 6568.34 1845.2C6538.34 1845.2 6513.74 1854.8 6494.54 1874C6476.54 1892 6463.34 1917.8 6454.94 1951.4H6681.74ZM7388.66 1690.4C7425.86 1668.8 7475.06 1645.4 7536.26 1620.2C7597.46 1595 7664.66 1582.4 7737.86 1582.4C7861.46 1582.4 7949.66 1617.2 8002.46 1686.8C8055.26 1755.2 8081.66 1841.6 8081.66 1946V2486H7754.06V1953.2C7754.06 1919.6 7743.86 1893.8 7723.46 1875.8C7703.06 1857.8 7677.86 1848.8 7647.86 1848.8C7627.46 1848.8 7601.66 1854.2 7570.46 1865C7539.26 1875.8 7510.46 1887.2 7484.06 1899.2V2486H7156.46V1614.8H7320.26L7388.66 1690.4Z" fill="#0486FF"/>
</g>
<defs>
<filter id="filter0_di_437_156" x="2623" y="1137.8" width="5462.66" height="1750.4" filterUnits="userSpaceOnUse" color-interpolation-filters="sRGB">
<feFlood flood-opacity="0" result="BackgroundImageFix"/>
<feColorMatrix in="SourceAlpha" type="matrix" values="0 0 0 0 0 0 0 0 0 0 0 0 0 0 0 0 0 0 127 0" result="hardAlpha"/>
<feOffset dy="4"/>
<feGaussianBlur stdDeviation="2"/>
<feComposite in2="hardAlpha" operator="out"/>
<feColorMatrix type="matrix" values="0 0 0 0 0 0 0 0 0 0 0 0 0 0 0 0 0 0 0.25 0"/>
<feBlend mode="normal" in2="BackgroundImageFix" result="effect1_dropShadow_437_156"/>
<feBlend mode="normal" in="SourceGraphic" in2="effect1_dropShadow_437_156" result="shape"/>
<feColorMatrix in="SourceAlpha" type="matrix" values="0 0 0 0 0 0 0 0 0 0 0 0 0 0 0 0 0 0 127 0" result="hardAlpha"/>
<feOffset dy="4"/>
<feGaussianBlur stdDeviation="2"/>
<feComposite in2="hardAlpha" operator="arithmetic" k2="-1" k3="1"/>
<feColorMatrix type="matrix" values="0 0 0 0 0.168032 0 0 0 0 0.0929779 0 0 0 0 0.871667 0 0 0 1 0"/>
<feBlend mode="normal" in2="shape" result="effect2_innerShadow_437_156"/>
</filter>
<linearGradient id="paint0_linear_437_156" x1="-2.52998e-06" y1="2804.49" x2="2505.81" y2="2804.49" gradientUnits="userSpaceOnUse">
<stop stop-color="#A55FCF"/>
<stop offset="0.480902" stop-color="#6FADD6"/>
<stop offset="1" stop-color="#6A92CF"/>
</linearGradient>
<linearGradient id="paint1_linear_437_156" x1="1792.95" y1="2376.65" x2="2246.59" y2="2376.65" gradientUnits="userSpaceOnUse">
<stop stop-color="#725FA1"/>
<stop offset="1" stop-color="#A9A9A9"/>
</linearGradient>
</defs>
</svg>
